<svg xmlns="http://www.w3.org/2000/svg" viewBox="0 0 158.49 137.56"><defs><style>.cls-1,.cls-2,.cls-3,.cls-4,.cls-5,.cls-6,.cls-7{fill:#a64137;}.cls-1{opacity:0.58;}.cls-3{opacity:0.62;}.cls-4{opacity:0.64;}.cls-5{opacity:0.36;}.cls-6{opacity:0.45;}.cls-7{opacity:0.14;}.cls-8{fill:#af544b;}</style></defs><g id="Calque_2" data-name="Calque 2"><g id="Calque_1-2" data-name="Calque 1"><path class="cls-1" d="M63.36,2.16c-1-.81-6.4.12-11.64,2.15A66.89,66.89,0,0,0,44.5,7.6c-2,1.1-3.58,2-4.17,2.26a42,42,0,0,0-10.6,8.5,66.53,66.53,0,0,0-10.42,15,73.76,73.76,0,0,0-5.57,14.85c-.55,2-.84,3.67-1.15,4.8s-.41,1.79-.53,1.78c-.3-.18-1,.18-2,.93A23.84,23.84,0,0,0,6.85,59a28.58,28.58,0,0,0-3,4.52A13.17,13.17,0,0,0,2.45,67.7,47.08,47.08,0,0,0,3.62,84.33,45.57,45.57,0,0,0,9.7,98.24,33,33,0,0,0,12.42,102a7.26,7.26,0,0,1,1.33,2.28c.37.71,3.4,1.77,7.4,5.76,2.67,2.77,5.46,6.89,8.46,8.78.69.48,1.53,1.13,2.49,1.89l3.3,2.45a90.81,90.81,0,0,0,8.29,5.29,78.15,78.15,0,0,0,8.92,4.17,60.49,60.49,0,0,0,7,2.19,100.42,100.42,0,0,0,16,2.28c4.54.29,8.69.49,13.83.38a39.37,39.37,0,0,0,10.81-1.58,88.91,88.91,0,0,0,10.44-3.76,57.7,57.7,0,0,0,9.84-5.51,83,83,0,0,0,8.78-7.09,55.65,55.65,0,0,0,8.11-8.28A53.35,53.35,0,0,0,143.79,101a13.37,13.37,0,0,0,.92-3c.15-.82,1-2.82,1.33-3.9,1.35-3.14,2.64-6.18,3.67-9.32A35.42,35.42,0,0,0,151.48,75c.05-1.9-.48-4.68-1-4.11-2.8,2.82-5.08,7.68-8,12.63-1.38,2.35-2.54,5-3.84,7.81A72,72,0,0,1,134,99.82a22.39,22.39,0,0,1-8.71,8,21.19,21.19,0,0,1-4.51,1.65,22.1,22.1,0,0,1-4.16.54c-1.87,0-3.84-.57-5.87-.65A11.43,11.43,0,0,0,104,111,66.36,66.36,0,0,1,94.94,116a20.75,20.75,0,0,1-10.4,1.64,69.78,69.78,0,0,1-13.7-3.79c-.3-.19-1.1-.54-1.91-1s-1.64-.81-2.05-1a39.82,39.82,0,0,1-7.65-3.67,23.54,23.54,0,0,0-6.94-3.06,28.09,28.09,0,0,1-5.72-5.35,46,46,0,0,0-4.84-5.11,38.76,38.76,0,0,1-7.3-8.12,28,28,0,0,1-4.37-11.28,34.48,34.48,0,0,1-.43-7.2,32.9,32.9,0,0,1,1.12-7,6.9,6.9,0,0,1,.81-1.8,19.93,19.93,0,0,1,1.55-2.38,24.35,24.35,0,0,1,1.78-2.24,18,18,0,0,1,1.4-1.51A11,11,0,0,0,37.88,51a12.56,12.56,0,0,0,.64-1.27,14.49,14.49,0,0,0,.59-1.33c.34-.93.73-1.83,1-2.76s.59-1.78.8-2.61a31.94,31.94,0,0,1,8.61-15.27c1.83-1.55,4-2.26,6.25-3.53,2.61-1.66,4.81-3.27,7.08-4.69a37,37,0,0,1,7.24-3.78c1.27-.4,2.49-.63,3.6-.94s2.18-.46,3.16-.64l2.71-.44,2.28-.28,5.58-.57c2.15-.28,1.68-.57,2.11-.42a6.06,6.06,0,0,1,2.61,1.08A9.67,9.67,0,0,0,95,15a49.24,49.24,0,0,0,9.73,1.62,36.83,36.83,0,0,1,12.08,3.26,28.28,28.28,0,0,1,10.86,8.89c-.19-.62-.05-1.06-.5-1.56-1-1.41-2.13-2.68-3.18-4s-2.2-2.52-3.38-3.67a57.64,57.64,0,0,0-7.43-6.51,47.54,47.54,0,0,0-8.84-5.13A44.48,44.48,0,0,0,93.7,4.84c-1.53,0-3.45,0-5.26-.08-.8-.07-1.59-.13-2.36-.17H83.8c-1.5,0-3,.13-4.39.23A49.78,49.78,0,0,1,70.27,4c-1.58-.29-3.08-.54-4.3-.84A8.34,8.34,0,0,1,63.36,2.16Z"/><path class="cls-2" d="M134,100a72.28,72.28,0,0,0,4.63-8.48c1.29-2.81,2.49-5.46,3.86-7.81,3-4.95,5.25-9.8,8.06-12.61.55-.58,1.09,2.21,1,4.11A34.87,34.87,0,0,1,149.73,85c-1,3.15-2.36,6.19-3.71,9.33-.34,1.08-1.18,3.08-1.33,3.9a13.38,13.38,0,0,1-.93,3,54.61,54.61,0,0,1-14.59,18.49,83.91,83.91,0,0,1-8.81,7.07,58,58,0,0,1-9.87,5.49A93.14,93.14,0,0,1,100,136a40,40,0,0,1-10.83,1.55c-5.15.08-9.3-.12-13.84-.43a99.89,99.89,0,0,1-16-2.32c-.86-.2-1.89-.52-3.09-.86s-2.5-.84-3.91-1.36a76.64,76.64,0,0,1-8.91-4.19,93,93,0,0,1-8.29-5.32c-1.19-.9-2.32-1.72-3.29-2.47s-1.81-1.41-2.49-1.9c-3-1.9-5.78-6-8.44-8.81l-.12-.55c-.09-.36-.24-.9-.39-1.65l-.61-2.79c-.21-1.13-.47-2.44-.73-4C25.33,110,34,116.39,43,121.2s18,8.08,27.34,8.29a59.45,59.45,0,0,0,58.48-21.72A55.06,55.06,0,0,0,134,100Z"/><path class="cls-3" d="M23.49,108.31l-.84-1c-.5-.62-1.22-1.52-2.06-2.61a53.63,53.63,0,0,1-5.09-8.54,30.52,30.52,0,0,1-2.8-9c-.28-2.41.26-3.82,1.68-3.35l.74.89,2.08,2.39c.87,1,2,2.15,3.15,3.4s2.54,2.56,4,3.88c2.87,2.67,6.09,5.34,9.18,7.81a96.21,96.21,0,0,1,8.32,7.12A50.22,50.22,0,0,0,45.79,113a46.51,46.51,0,0,0,7.42,5.14l.29.29c.19.19.47.47.85.79a27.75,27.75,0,0,0,3.38,2.52,30.14,30.14,0,0,0,5.46,2.74,27.58,27.58,0,0,0,7.12,1.64l.45.07c.3,0,.73.13,1.29.17l2,.2c.77.08,1.66.09,2.61.15s2,0,3.1,0,2.26-.08,3.46-.14a63,63,0,0,0,7.47-1,66.82,66.82,0,0,0,13.67-4.37l2.57-1.18c.77-.38,1.47-.71,2.09-1a6.92,6.92,0,0,1,2.51-.89l.62-.34,1.66-.92,2.37-1.42c.86-.58,1.81-1.17,2.76-1.84,1.9-1.33,3.84-2.84,5.52-4.23s3.09-2.6,4-3.24c0,0,.43-.17,1.16-.54a24,24,0,0,0,2.82-1.83,19.48,19.48,0,0,0,6.27-8.31l.58-.86,1.37-2.25c.55-.92,1.12-2,1.75-3.08s1.19-2.25,1.7-3.33a24.51,24.51,0,0,1,2.48-4.48c.53-.49.82.42.28,3.7l-.15,1.27c-.07.79-.28,1.86-.49,3.07s-.55,2.51-.84,3.78-.72,2.45-1,3.41L143.31,99c-.7,1.4-1.76,3.38-3.2,5.66a66,66,0,0,1-13,14.87,62.55,62.55,0,0,1-17.26,10.3c-5.28,2.06-9.29,2.72-10.11,2.66,0,0-.91.2-2.57.45l-1.37.23-1.64.2c-1.17.17-2.51.27-4,.38a75.9,75.9,0,0,1-10.26,0,77,77,0,0,1-12.2-1.84A86.37,86.37,0,0,1,43,121.58C35.45,117.07,29,111.87,23.49,108.31Z"/><path class="cls-4" d="M21,108.25s-.24-.21-.65-.61-1-1-1.71-1.73-1.48-1.7-2.35-2.78-1.7-2.34-2.55-3.72a35.61,35.61,0,0,1-4-9.39,20.06,20.06,0,0,1-.3-9.6,46,46,0,0,1,.36-4.87c.14-1.42.47-3,.77-4.7s.78-3.36,1.35-5c.27-.79.54-1.57.83-2.3s.62-1.41.93-2a13.13,13.13,0,0,1,1.87-2.95c1.18-1.35,2.12-1.32,2.55.89L18.41,61c.24,1,.51,2.42,1,4.18A79.26,79.26,0,0,0,24.1,78.61c.54,1.28,1.24,2.55,1.87,3.86s1.39,2.59,2.19,3.87a78.91,78.91,0,0,0,5.13,7.54,114.72,114.72,0,0,0,12.2,13.33,4,4,0,0,0,.35.32c.25.19.63.46,1.15.79.26.16.56.34.89.52s.74.35,1.17.53a17.4,17.4,0,0,0,3.06,1l.47.26,1.29.67c.53.29,1.16.63,1.88,1l1.1.58,1.19.58c3.23,1.66,7,3.4,9.19,5.45,0,0,.21.13.6.34l1.64.88c.71.35,1.57.73,2.53,1.17s2,.83,3.22,1.16A35.91,35.91,0,0,0,82.68,124a27.44,27.44,0,0,0,3.59.09c.56,0,1.1-.06,1.61-.11s1-.17,1.4-.27c0,0,.38.09,1,.2a20.81,20.81,0,0,0,2.53.21,17,17,0,0,0,3.27-.27,10,10,0,0,0,3.09-1.15s-.57.28-1.61.68-2.55,1-4.42,1.57a52.36,52.36,0,0,1-14.58,2.19,49.58,49.58,0,0,1-8.29-.63,47.28,47.28,0,0,1-7.44-1.86c-4.44-1.56-7.55-3.5-8.34-4.7l-.67-.52c-.45-.31-1.08-.82-1.9-1.43-1.65-1.22-4-3-6.76-5.14A263.79,263.79,0,0,1,23.94,94.29,5.64,5.64,0,0,0,22.6,94a3.88,3.88,0,0,0-2.62.61c-.82.6-1.54,1.77-1.6,3.94S18.9,103.91,21,108.25Z"/><path class="cls-5" d="M7.27,95.83a55.79,55.79,0,0,1-5.74-10.9,23.62,23.62,0,0,1-.84-4.07c-.25-1.49-.36-3-.55-4.41a28.36,28.36,0,0,1,0-5.37c.18-1.71.45-3.28.67-4.52C2.2,60.89,3.91,53.7,6.66,47.13s6.45-12.4,10.12-15.64a29.64,29.64,0,0,0,2.81-3.35c.16-.43,1-1.95,1.16-2.39a92.52,92.52,0,0,1,9.53-10.9,35,35,0,0,1,8.95-6.78,48.09,48.09,0,0,1,10-3.92A99,99,0,0,1,61.55,1.09,14.5,14.5,0,0,1,66,1a17.31,17.31,0,0,1,3.21.8A19.32,19.32,0,0,0,76.26,3c5.19.1,10,0,14.89.28a41.24,41.24,0,0,1,14.62,3.32c5.47,2.72,10.1,5.58,14,9.49a85.14,85.14,0,0,1,8.14,10,9.47,9.47,0,0,1,.87,2c.22.77.32,1.44.19,1.49-.54-.1-2-1.91-3.08-2.76-3.09-2.28-3.52-4.66-5.19-6.74-2.17-2.54-6-4.57-9.57-6.55a44.75,44.75,0,0,1-3.76-2.85,10.44,10.44,0,0,0-3.65-1.77,46.55,46.55,0,0,0-4.71-1c-4-.53-8-2.39-12.3-2.56a29.1,29.1,0,0,0-4.1.11c-1.32.16-2.58.39-3.8.59s-2.41.47-3.58.66A23,23,0,0,1,71.75,7c2,0-2.23.66-6.34,1.7-2.06.5-4.08,1.14-5.36,1.49s-1.77.5-.8,0a2.69,2.69,0,0,1-2-.14c0-.27-.4-.56-.08-.81,2.6-2,1.88-3.45,2.56-5a51.41,51.41,0,0,0-6.59,2.21c-3.43,1.31-7.27,3.09-9.52,3.94-3.5,1.14-6.78,2.19-10.46,5.21-.87.86-.85,1.79-1.68,2.68a16,16,0,0,0-1.5,1.83c-.72.94-1.62,2.19-2.58,3.7a71.63,71.63,0,0,0-5.79,11.05,76.1,76.1,0,0,0-3.81,11.77c-.41,1.71-.73,3.21-1,4.38a15.81,15.81,0,0,1-.6,2.45c-.86,1.95-2.31,4.43-2.82,3.74-1.68-1-3.26,2.83-4.9,4.15-.44.21-.81-.83-1.25-.63a9.65,9.65,0,0,0-2,2.48A11.78,11.78,0,0,0,4,67a37.9,37.9,0,0,0,.17,15.1A79.84,79.84,0,0,0,7.27,95.83Z"/><path class="cls-6" d="M99.54,113.73l-.4.27a10.24,10.24,0,0,1-1.16.71c-.52.27-1.15.61-1.89.94a25.39,25.39,0,0,1-2.56.95,24.06,24.06,0,0,1-6.75,1.1A21,21,0,0,1,79,116.38l-1.36-.33c-.81-.28-1.93-.53-3.06-1s-2.29-.83-3.29-1.16a13.32,13.32,0,0,0-2.26-.76c-.79-.51-1.62-.91-2.38-1.45,0,0-3-1.21-6.15-2.86s-6.49-3.67-8.09-3.73c0,0-.35-.22-.86-.59s-1.2-.91-1.88-1.5a13.08,13.08,0,0,1-2.86-3.1s-.19-.27-.58-.72c-.19-.23-.44-.5-.73-.81s-.61-.69-1-1.07C43,95.77,40.85,93.67,38,91.19"/><path class="cls-7" d="M34.92,9.39a64.51,64.51,0,0,1,11.54-5.8A51.72,51.72,0,0,1,59.56.25,63.9,63.9,0,0,1,81,2a7.53,7.53,0,0,0,2.23,0,17.87,17.87,0,0,1,3.4-.39c1.18,0,2.37.08,3.56.18l3.51.47c1.14.15,2.24.36,3.3.42s1.8.13,2.7.23a12.38,12.38,0,0,1,2.77.56,47.83,47.83,0,0,1,23,16.78,46.57,46.57,0,0,1,4.82,9.14c.18.64.62,1.63.28,1.77-.11.29-1-1-1.61-1.52a28.13,28.13,0,0,0-1.48-2.77c-1.23-2.1-3.43-4.1-4.69-5.92a41,41,0,0,0-4.65-5.5,21.2,21.2,0,0,0-2.1-1.66,23.71,23.71,0,0,0-2.25-1.49,54.73,54.73,0,0,0-9-4.68c-.79-.3-1.59-.58-2.39-.86A25.15,25.15,0,0,0,100,6l-2.46-.66L95,4.79a16.66,16.66,0,0,1-4.84-.27l-2.61-.39a18.9,18.9,0,0,0-2.49-.27c-1-.06-1.85-.32-3-.46-2.89-.08-5.88.52-7.92.09A39.21,39.21,0,0,0,60.53,2.18,56.45,56.45,0,0,0,47.7,5.29,58.34,58.34,0,0,0,35.33,11.4C29.93,14.89,26,19.9,22,24.57c-.15.23,0-1.05,1.61-3.77S28.46,13.87,34.92,9.39Z"/><path class="cls-8" d="M44.59,49.64h5.8v1.89H48.65q1.13,2.61,2.22,5.22T53.08,62l.22.79A19.15,19.15,0,0,1,54,60.63c.27-.72.57-1.43.88-2.14s.63-1.42,1-2.12.64-1.4.92-2.08c-.19-.47-.38-.93-.58-1.38s-.4-.92-.59-1.38H53.41V49.64h5.8v1.89H57.59q1.13,2.61,2.21,5.22T62,62l.22.79.21-.79q1.14-2.61,2.23-5.21l2.21-5.24H65.36V49.64h5.78v1.89H68.88c-1.11,2.64-2.21,5.25-3.32,7.83s-2.22,5.18-3.32,7.82L58,57.19l-.24-.84a25.86,25.86,0,0,1-.87,2.72c-.35.92-.73,1.83-1.15,2.74s-.83,1.82-1.26,2.72-.81,1.79-1.18,2.65c-1.1-2.64-2.21-5.24-3.32-7.82s-2.22-5.19-3.32-7.83H44.59Z"/><path class="cls-8" d="M72.79,64.52h1.68v-5.2H72.79V57.43h3.67v7.09h1.65v1.89H72.79ZM74.26,54a1.17,1.17,0,0,1,.38-.91,1.21,1.21,0,0,1,.86-.36,1.18,1.18,0,0,1,.84.36,1.17,1.17,0,0,1,.38.91,1.14,1.14,0,0,1-.38.9,1.22,1.22,0,0,1-.84.35,1.24,1.24,0,0,1-.86-.35A1.14,1.14,0,0,1,74.26,54Z"/><path class="cls-8" d="M86.69,64.52h1.85V60.79a1.7,1.7,0,0,0-1.8-1.64,3.13,3.13,0,0,0-1.18.22,3.25,3.25,0,0,0-1,.6,3,3,0,0,0-.69.92,2.54,2.54,0,0,0-.27,1.16v2.47h1.51v1.89H79.79V64.52h1.82v-5.2H80V57.43h3.33v.21c0,.39.06.73.09,1s0,.66.08,1a3.91,3.91,0,0,1,1.55-1.84,4.31,4.31,0,0,1,2.36-.68,3.23,3.23,0,0,1,2.23.74,2.68,2.68,0,0,1,.86,1.94v4.63H92v1.89H86.69Z"/><path class="cls-8" d="M102.7,61.19l-3.25,1.2-3.24,1.19a2.55,2.55,0,0,0,.94.81,2.92,2.92,0,0,0,1.33.3,2.41,2.41,0,0,0,1.83-.77l1.22,1.44a4.38,4.38,0,0,1-1.37.93,4,4,0,0,1-1.68.34,4.92,4.92,0,0,1-1.88-.37,4.79,4.79,0,0,1-2.54-2.52,4.69,4.69,0,0,1,0-3.65,4.64,4.64,0,0,1,1-1.5,4.81,4.81,0,0,1,1.52-1,4.74,4.74,0,0,1,1.88-.37,3.53,3.53,0,0,1,1.43.3,4.06,4.06,0,0,1,1.22.83,5.49,5.49,0,0,1,1,1.25A6.41,6.41,0,0,1,102.7,61.19Zm-4.22-2a2.82,2.82,0,0,0-2,.73,2.6,2.6,0,0,0-.81,1.84l2.24-.83,2.24-.83a2.92,2.92,0,0,0-.75-.66A1.85,1.85,0,0,0,98.48,59.15Z"/><path class="cls-8" d="M118.57,64.52h1.84V60.79a1.7,1.7,0,0,0-1.8-1.64,3.13,3.13,0,0,0-1.18.22,3.25,3.25,0,0,0-1,.6,3.13,3.13,0,0,0-.69.92,2.54,2.54,0,0,0-.27,1.16v2.47H117v1.89h-5.32V64.52h1.83v-5.2H111.9V57.43h3.33v.21c0,.39.07.73.09,1s.05.66.08,1A4,4,0,0,1,117,57.89a4.33,4.33,0,0,1,2.36-.68,3.23,3.23,0,0,1,2.23.74,2.68,2.68,0,0,1,.86,1.94v4.63h1.49v1.89h-5.32Z"/><path class="cls-8" d="M125.56,61.91A4.77,4.77,0,0,1,127,58.59a4.85,4.85,0,0,1,1.53-1,4.71,4.71,0,0,1,1.88-.37,4.85,4.85,0,0,1,3.42,1.38,4.68,4.68,0,0,1,1,5.15,4.69,4.69,0,0,1-1,1.5,4.77,4.77,0,0,1-1.53,1,5,5,0,0,1-1.89.37A4.8,4.8,0,0,1,127,65.24a4.67,4.67,0,0,1-1-1.5A4.51,4.51,0,0,1,125.56,61.91Zm2,0a2.78,2.78,0,0,0,.22,1.08,2.53,2.53,0,0,0,.59.87,2.63,2.63,0,0,0,.87.59,2.76,2.76,0,0,0,2.16,0,2.78,2.78,0,0,0,.88-.59,2.42,2.42,0,0,0,.6-.87,2.61,2.61,0,0,0,.22-1.08,2.78,2.78,0,0,0-3.86-2.56,2.51,2.51,0,0,0-.87.6,2.78,2.78,0,0,0-.59.88A2.82,2.82,0,0,0,127.55,61.93Z"/><path class="cls-8" d="M138.86,51.58h2v5.85h2.35v1.94h-2.35v5.15h1.8v1.89h-3.79v-7h-2V57.43h2Z"/><path class="cls-8" d="M146.77,53.18l-.87-.32-.88-.32a8.55,8.55,0,0,1,.48-1.17,4.55,4.55,0,0,1,.87-1.18,4.65,4.65,0,0,1,1.39-.94,5,5,0,0,1,2.06-.38,4.55,4.55,0,0,1,1.84.37,4.61,4.61,0,0,1,1.5,1,4.69,4.69,0,0,1,1,1.48,4.6,4.6,0,0,1,.36,1.81,4.27,4.27,0,0,1-.63,2.34,7,7,0,0,1-1.73,1.81c-.22.16-.46.32-.72.49a4.46,4.46,0,0,0-.72.58,2.68,2.68,0,0,0-.56.76,2.55,2.55,0,0,0-.21,1.09v1.87h-2V60.16a2.81,2.81,0,0,1,.24-1.25,3,3,0,0,1,.65-.85,6.49,6.49,0,0,1,.92-.69c.34-.22.7-.47,1.07-.76a4.31,4.31,0,0,0,1.28-1.41,3.4,3.4,0,0,0,.41-1.66,2.73,2.73,0,0,0-.73-1.95,2.55,2.55,0,0,0-1.95-.78,3,3,0,0,0-2,.6A3.81,3.81,0,0,0,146.77,53.18Zm2.16,13.23a1.23,1.23,0,0,1-.86-.34,1.25,1.25,0,0,1,0-1.81,1.24,1.24,0,0,1,1.7,1.81A1.24,1.24,0,0,1,148.93,66.41Z"/><path class="cls-8" d="M157.27,66.41a1.21,1.21,0,0,1-.86-.36,1.25,1.25,0,0,1,0-1.81,1.23,1.23,0,0,1,1.7,0,1.27,1.27,0,0,1,0,1.81A1.22,1.22,0,0,1,157.27,66.41Zm-1-18h2v14h-2Z"/></g></g></svg>